<?xml version="1.0" standalone="no"?>
<!DOCTYPE svg PUBLIC "-//W3C//DTD SVG 1.1//EN" "http://www.w3.org/Graphics/SVG/1.1/DTD/svg11.dtd">
<svg xmlns="http://www.w3.org/2000/svg">
<metadata>Generated by Fontastic.me</metadata>
<defs>
<font id="timbo2" horiz-adv-x="512">
<font-face font-family="timbo2" units-per-em="512" ascent="480" descent="-32"/>
<missing-glyph horiz-adv-x="512" />

<glyph glyph-name="chevron-down" unicode="&#98;" d="M256 214l174 167c5 4 12 4 16 0l31-30c4-5 4-12 0-16l-213-204c-2-2-5-3-8-3-3 0-6 1-8 3l-213 204c-4 4-4 11 0 16l31 30c4 4 12 4 16 0z"/>
<glyph glyph-name="chevron-left" unicode="&#99;" d="M214 256l167 174c4 4 4 11 0 16l-30 30c-4 5-11 5-16 1l-204-213c-2-2-3-5-3-8 0-3 1-6 3-8l204-213c5-4 12-4 16 0l30 31c4 4 4 11 0 16z"/>
<glyph glyph-name="chevron-right" unicode="&#100;" d="M298 256l-167 174c-4 4-4 11 0 16l30 30c5 5 12 5 16 1l204-213c2-2 3-5 3-8 0-3-1-6-3-8l-204-213c-4-4-11-4-16 0l-30 31c-4 4-4 11 0 16z"/>
<glyph glyph-name="chevron-up" unicode="&#101;" d="M256 298l174-167c5-4 12-4 16 0l31 30c4 4 4 11 0 16l-213 204c-2 2-5 3-8 3-3 0-6-1-8-3l-213-204c-4-5-4-12 0-16l31-30c4-4 12-4 16 0z"/>
<glyph glyph-name="times" unicode="&#102;" d="M426 134c0-7-3-14-8-19l-39-39c-5-5-12-8-20-8-7 0-14 3-19 8l-84 84-84-84c-5-5-12-8-19-8-8 0-15 3-20 8l-39 39c-5 5-8 12-8 19 0 8 3 14 8 20l84 84-84 84c-5 5-8 12-8 19 0 8 3 14 8 20l39 38c5 6 12 8 20 8 7 0 14-2 19-8l84-84 84 84c5 6 12 8 19 8 8 0 15-2 20-8l39-38c5-6 8-12 8-20 0-7-3-14-8-19l-84-84 84-84c5-6 8-12 8-20z"/>
<glyph glyph-name="search" unicode="&#104;" d="M347 274c0 36-12 66-37 91-25 25-55 37-91 37-35 0-65-12-90-37-25-25-38-55-38-91 0-35 13-65 38-90 25-25 55-38 90-38 36 0 66 13 91 38 25 25 37 55 37 90z m147-237c0-10-4-19-11-26-7-7-16-11-26-11-10 0-19 4-26 11l-98 98c-34-24-72-36-114-36-27 0-53 5-78 16-25 11-46 25-64 43-18 18-32 39-43 64-10 25-16 51-16 78 0 28 6 54 16 78 11 25 25 47 43 65 18 18 39 32 64 43 25 10 51 15 78 15 28 0 54-5 79-15 24-11 46-25 64-43 18-18 32-40 43-65 10-24 16-50 16-78 0-42-12-80-36-114l98-98c7-7 11-15 11-25z"/>
<glyph glyph-name="bell-o" unicode="&#106;" d="M261 27c0 3-2 5-5 5-11 0-21 4-29 12-8 8-12 18-12 29 0 3-2 5-5 5-3 0-4-2-4-5 0-14 5-26 14-35 10-10 22-15 36-15 3 0 5 1 5 4z m-191 83l372 0c-51 57-76 136-76 237 0 10-3 20-7 30-5 11-11 21-20 30-8 9-20 17-35 23-14 6-30 9-48 9-18 0-34-3-48-9-15-6-27-14-35-23-9-9-15-19-20-30-4-10-7-20-7-30 0-101-25-180-76-237z m424 0c0-10-4-19-11-26-7-7-16-11-26-11l-128 0c0-20-7-37-21-52-15-14-32-21-52-21-20 0-37 7-52 21-14 15-21 32-21 52l-128 0c-10 0-19 4-26 11-7 7-11 16-11 26 10 8 18 16 26 25 8 9 16 20 25 34 8 14 15 29 21 45 6 16 10 36 14 59 4 23 6 48 6 74 0 29 11 56 33 81 22 25 52 40 88 45-2 4-2 8-2 12 0 7 2 14 8 19 5 5 11 8 19 8 8 0 14-3 19-8 6-5 8-12 8-19 0-4 0-8-2-12 36-5 66-20 88-45 22-25 33-52 33-81 0-26 2-51 6-74 4-23 8-43 14-59 6-16 13-31 21-45 9-14 17-25 25-34 8-9 16-17 26-25z"/>
<glyph glyph-name="home" unicode="&#107;" d="M421 229l0-138c0-5-2-9-6-12-3-4-8-6-13-6l-109 0 0 110-74 0 0-110-109 0c-5 0-10 2-13 6-4 3-6 7-6 12l0 138c0 0 0 0 0 0 0 1 0 1 0 1l164 136 165-136c0 0 0-1 0-1z m63 19l-17-21c-2-2-4-3-6-3l-1 0c-3 0-5 1-6 2l-198 165-198-165c-2-2-4-2-7-2-2 0-4 1-6 3l-17 21c-2 2-2 4-2 7 0 3 1 5 3 6l205 171c6 5 14 8 22 8 8 0 16-3 22-8l69-58 0 56c0 2 1 5 3 6 2 2 4 3 7 3l54 0c3 0 5-1 7-3 2-1 3-4 3-6l0-117 62-52c2-1 3-3 3-6 0-3 0-5-2-7z"/>
<glyph glyph-name="dot-3" unicode="&#108;" d="M77 312c16 0 29-5 40-16 11-11 16-24 16-40 0-15-5-28-16-39-11-12-24-17-40-17-16 0-29 5-40 17-11 11-17 24-17 39 0 16 6 29 17 40 11 11 24 16 40 16m179 0c16 0 29-5 40-16 11-11 16-24 16-40 0-15-5-28-17-39-11-12-24-17-39-17-15 0-28 5-39 17-12 11-17 24-17 39 0 16 5 29 16 40 11 11 24 16 40 16m179 0c16 0 29-5 40-16 11-11 17-24 17-40 0-15-6-28-17-39-11-12-24-17-40-17-15 0-29 5-40 17-11 11-16 24-16 39 0 16 5 29 16 40 11 11 25 16 40 16"/>
<glyph glyph-name="bars" unicode="&#110;" d="M475 128l0-37c0-5-1-9-5-12-4-4-8-6-13-6l-402 0c-5 0-9 2-13 6-4 3-5 7-5 12l0 37c0 5 1 9 5 13 4 3 8 5 13 5l402 0c5 0 9-2 13-5 4-4 5-8 5-13z m0 146l0-36c0-5-1-10-5-13-4-4-8-6-13-6l-402 0c-5 0-9 2-13 6-4 3-5 8-5 13l0 36c0 5 1 10 5 13 4 4 8 6 13 6l402 0c5 0 9-2 13-6 4-3 5-8 5-13z m0 147l0-37c0-5-1-9-5-13-4-3-8-5-13-5l-402 0c-5 0-9 2-13 5-4 4-5 8-5 13l0 37c0 5 1 9 5 12 4 4 8 6 13 6l402 0c5 0 9-2 13-6 4-3 5-7 5-12z"/>
<glyph glyph-name="futbol-o" unicode="&#111;" d="M174 279l82 59 82-59-31-96-102 0z m82 233c35 0 68-7 99-20 32-14 59-32 82-55 23-23 41-50 55-82 13-31 20-64 20-99 0-35-7-68-20-99-14-32-32-59-55-82-23-23-50-41-82-55-31-13-64-20-99-20-35 0-68 7-99 20-32 14-59 32-82 55-23 23-41 50-55 82-13 31-20 64-20 99 0 35 7 68 20 99 14 32 32 59 55 82 23 23 50 41 82 55 31 13 64 20 99 20z m177-386c28 39 42 82 42 130l0 1-29-26-68 64 18 93 38-4c-29 40-66 66-111 81l15-36-82-45-82 45 15 36c-45-15-82-41-111-81l39 4 17-93-68-64-29 26 0-1c0-48 14-91 42-130l9 38 93-11 40-86-34-19c23-8 46-11 69-11 23 0 46 3 69 11l-34 19 40 86 93 11z"/>
<glyph glyph-name="facebook" unicode="&#114;" d="M337 420l46 0 0 77c-22 3-44 4-67 4-5 1-12 0-18 0-58-6-100-57-94-115l0-64-75 0 0-88 75 0 0-223 90 0 0 223 75 0 11 88-86 0 0 55c0 25 7 43 43 43z"/>
<glyph glyph-name="google" unicode="&#115;" d="M474 297l-213 0 0-87 118 0c-10-29-30-53-56-68-21-12-44-18-67-18-55 0-104 34-123 86-11 28-12 60-2 89 4 9 8 18 13 26 39 62 120 81 182 43l71 58c-12 10-25 19-39 27-109 56-243 13-299-95-34-65-33-143 1-207 39-72 114-117 196-117 50 0 99 17 138 49 40 32 68 76 79 126 3 16 4 31 4 47 1 14-1 28-3 41z"/>
<glyph glyph-name="instagram" unicode="&#116;" d="M339 478l-166 0c-77 0-139-62-139-139l0-166c0-77 62-139 139-139l166 0c77 0 139 62 139 139l0 166c0 77-62 139-139 139z m97-305c0-54-43-97-97-97l-166 0c-54 0-97 43-97 97l0 166c0 54 43 97 97 97l166 0c54 0 97-43 97-97z m-180 194c-61 0-111-50-111-111 0-61 50-111 111-111 61 0 111 50 111 111 0 61-50 111-111 111z m0-180c-38 0-69 31-69 69 0 38 31 70 69 70 38 0 69-32 69-70 0-38-31-69-69-69z m119 203c-8 0-15-7-15-15 0-8 7-15 15-15 8 0 15 7 15 15 0 8-7 15-15 15z"/>
<glyph glyph-name="whatsapp" unicode="&#117;" d="M378 441c-36 24-78 37-122 37-123 0-222-100-222-222 0-47 15-92 42-130l-27-82 85 27c102-68 240-40 307 63 68 102 40 240-63 307z m7-276c-9-17-25-28-44-32-11-2-27-4-78 17-45 22-83 56-110 98-15 19-24 42-27 67 0 20 8 40 23 54 6 5 15 8 23 8 3 0 5 0 7-1 7 0 10 0 15-11 5-12 18-44 20-48 2-3 2-8 1-12-2-4-5-7-7-10-4-4-7-6-10-11-3-3-7-7-3-14 10-16 22-31 36-44 15-14 33-25 52-32 5-3 12-2 16 2 6 8 12 15 17 23 3 6 10 8 16 5 6-2 38-18 44-21 7-3 11-5 13-8 1-10 0-21-4-30z"/>
<glyph glyph-name="my-loader" unicode="&#113;" d="M484 339c-10 27-24 52-43 73-37 43-89 73-144 81-14 2-28 3-42 3-14 0-28-1-42-4-14-3-27-6-40-11-13-5-26-12-38-19-24-14-45-33-63-54-17-22-31-47-40-73-2-4 1-9 5-11 4-1 9 1 11 5l0 0c9 25 22 47 38 67 17 19 37 36 59 49 44 26 98 34 148 25 25-4 49-13 71-26 21-13 41-29 57-49 16-19 29-42 37-65 8-24 12-49 12-74 0-25-5-50-13-73-9-24-22-45-38-64-17-19-36-35-58-47-21-12-45-20-69-24-12-2-25-3-37-3-12 1-25 2-37 4-12 2-24 6-35 10-12 5-23 10-33 16-21 13-40 29-55 48-15 19-27 41-35 64l0 0c0 0 0 0 0 0-4 11-16 17-27 13-11-4-17-16-13-27 10-28 25-53 44-76 18-22 41-41 66-55 13-8 26-14 40-19 13-5 27-8 42-11 14-2 28-3 43-3 14 0 29 1 43 4 28 5 56 15 80 29 25 15 47 34 66 56 18 22 32 47 42 74 9 27 14 56 14 84-1 28-6 57-16 83z"/>
<glyph glyph-name="check-round" unicode="&#118;" d="M256 467c-116 0-210-95-210-210 0-116 94-211 210-211 116 0 210 95 210 211 0 115-94 210-210 210z m118-155l-135-134c-8-8-20-8-29 0l-71 65c-8 8-9 20-1 29 8 9 21 9 29 1l56-52 121 121c8 8 21 8 30 0 8-8 8-22 0-30z"/>
<glyph glyph-name="edit" unicode="&#119;" d="M65 144l0-79 80 0 235 235-80 79z m376 247l-50 50c-8 8-22 8-30 0l-39-39 80-79 39 38c8 9 8 22 0 30z"/>
<glyph glyph-name="lightning" unicode="&#120;" d="M376 300c-2 2-4 4-7 4l-105 0 18 134c0 5-3 9-8 9-3 0-5-1-7-3l-128-224c-2-4-1-9 3-11 1-1 3-1 4-1l103 0-13-135c-1-4 3-8 7-9 3 0 6 2 7 4l126 224c1 2 1 5 0 8z"/>
<glyph glyph-name="close" unicode="&#105;" d="M304 256l116 116c13 13 13 34 0 48-14 13-35 13-48 0l-116-116-116 116c-13 13-34 13-48 0-13-14-13-35 0-48l116-116-116-116c-13-13-13-34 0-48 7-6 16-10 24-10 9 0 18 4 24 10l116 116 115-116c7-6 16-10 24-10 9 0 18 4 24 10 13 14 13 35 0 48z"/>
<glyph glyph-name="check" unicode="&#121;" d="M218 78c-9 0-18 3-24 10l-117 119c-13 14-13 35 0 48 14 13 35 13 48 0l88-90 170 254c11 15 32 20 47 9 16-10 20-31 10-47l-194-288c-6-9-15-14-25-15-1 0-2 0-3 0z"/>
<glyph glyph-name="trash" unicode="&#103;" d="M446 399l-92 0-14 34c-10 24-33 40-58 40l-52 0c-25 0-48-16-58-40l-14-34-92 0c-6 0-10-4-10-9l0-13c0-5 4-9 10-9l26 0 0-273c0-31 26-56 57-56l215 0c31 0 56 25 56 56l0 273 27 0c5 0 9 4 9 10l0 12c0 5-4 9-10 9z m-245 23c5 11 17 19 29 19l52 0c12 0 24-8 29-19l8-22-126 0z m4-300c0-6-5-10-11-10l-20 0c-6 0-10 4-10 10l0 200c0 6 4 11 10 11l20 0c6 0 11-5 11-11z m71 0c0-6-4-10-10-10l-20 0c-6 0-10 4-10 10l0 200c0 6 4 11 10 11l20 0c6 0 10-5 10-11l0-200z m72 0c0-6-4-10-10-10l-20 0c-6 0-11 4-11 10l0 200c0 6 5 11 11 11l20 0c6 0 10-5 10-11z m-154 210l-20 0c-5 0-9-5-9-10l0-200c0-5 4-9 9-9l20 0c6 0 10 4 10 9l0 200c0 5-4 10-10 10z m9-210c0-5-4-9-9-9l-20 0c-5 0-9 4-9 9l0 200c0 5 4 9 9 9l20 0c5 0 9-4 9-9z m63 210l-20 0c-6 0-10-5-10-10l0-200c0-5 5-9 10-9l20 0c5 0 9 4 9 9l0 200c1 5-4 10-9 10z m9-210c0-5-4-9-9-9l-20 0c-5 0-9 4-9 9l0 200c0 5 4 9 9 9l20 0c5 0 9-4 9-9z m63 210l-20 0c-6 0-10-5-10-10l0-200c0-5 5-9 10-9l20 0c5 0 9 4 9 9l0 200c0 5-4 10-9 10z m9-210c0-5-4-9-9-9l-20 0c-5 0-9 4-9 9l0 200c0 5 4 9 9 9l20 0c5 0 9-4 9-9z"/>
<glyph glyph-name="plus" unicode="&#109;" d="M290 222l123 0c19 0 33 15 33 34 0 19-15 34-33 34l-123 0 0 123c0 19-15 33-34 33-19 0-34-15-34-33l0-123-123 0c-19 0-33-15-33-34 0-9 3-18 9-24 6-6 15-10 24-10l123 0 0-123c0-9 4-18 10-23 6-6 14-10 23-10 19 0 34 15 34 34z"/>
<glyph glyph-name="cog" unicode="&#97;" d="M438 213c-17 7-29 23-29 43 0 20 12 36 29 43 6 2 10 8 8 14-4 13-9 25-15 37-3 6-10 7-16 5-16-8-37-5-51 9-14 14-17 35-9 51 2 6 1 13-5 16-12 6-24 11-37 15-6 2-12-2-14-8-7-17-23-29-43-29-20 0-36 12-43 29-2 6-8 10-14 8-13-4-25-9-37-15-6-3-7-10-5-16 8-16 5-37-9-51-14-14-35-17-51-9-6 2-13 1-16-5-6-12-11-24-15-37-2-6 2-12 8-14 17-7 29-23 29-43 0-20-12-36-29-43-6-2-10-8-8-14 4-13 9-25 15-37 3-6 10-7 16-5 16 8 37 5 51-9 14-14 17-35 9-51-2-6-1-13 5-16 12-6 24-11 37-15 6-2 12 2 14 8 7 17 23 29 43 29 20 0 36-12 43-29 2-6 8-10 14-8 13 4 25 9 37 15 6 3 7 10 5 16-8 16-5 37 9 51 14 14 35 17 51 9 6-2 13-1 16 5 6 12 11 24 15 37 2 6-2 12-8 14z m-182-40c-46 0-83 37-83 83 0 46 37 83 83 83 46 0 83-37 83-83 0-46-37-83-83-83z"/>
<glyph glyph-name="reset-pass" unicode="&#112;" d="M256 362c-41 0-75-33-75-74l0-34-5 0c-10 0-18-8-18-18l0-95c0-10 8-18 18-18l160 0c10 0 18 8 18 18l0 95c0 10-8 18-18 18l-5 0 0 34c0 41-34 74-75 74z m44-108l-88 0 0 34c0 24 20 44 44 44 24 0 44-20 44-44z m127 111c-5 7-14 9-21 4-7-5-9-15-4-22 22-30 34-67 34-104 0-99-81-180-180-180-99 0-180 81-180 180 0 99 81 179 180 179 7 0 15 0 22-1l-10-25c-1-2-1-4 0-5 1-1 3-2 4-2 0 0 1 0 1 0l97 7c2 0 4 1 4 3 1 1 1 3 0 5l-64 74c-2 1-3 2-5 2-2-1-3-2-4-3l-11-27c-11 2-22 3-34 3-116 0-211-94-211-210 0-116 95-211 211-211 116 0 210 95 210 211 0 44-13 86-39 122z"/>
</font>
</defs>
</svg>
