<?xml version="1.0" encoding="utf-8"?>
<!-- Generator: Adobe Illustrator 27.7.0, SVG Export Plug-In . SVG Version: 6.00 Build 0)  -->
<svg version="1.1" id="Layer_1" xmlns="http://www.w3.org/2000/svg" xmlns:xlink="http://www.w3.org/1999/xlink" x="0px" y="0px"
	 viewBox="0 0 72 17" style="enable-background:new 0 0 72 17;" xml:space="preserve">
<style type="text/css">
	.st0{fill:#FFFFFF;}
</style>
<g>
	<path class="st0" d="M51.8,12.1l7.6,4.9l7.8-3.6L72,0H56.1L51.8,12.1z M57.4,4h10.3h0l-1.4,0.3l-2.1,6.1l-4.5,2l-3.1-2l2.1-6.2
		L57.4,4z"/>
	<polygon class="st0" points="34.2,15.9 34.2,15.9 34.2,15.9 	"/>
	<path class="st0" d="M49,8.8c1.8-1,1.8-1,3.4-1.8L54,2.5L52.3,0L39.8,0l-5.6,15.9h13.3l2.3-1.5l1.7-4.7l-1-1.3L49,8.8z M46.5,11.8
		h-6.8l0.7-1.9l6.8,0h0L46.5,11.8z M41.9,5.9L42.5,4h6.7l-0.7,1.9L41.9,5.9z"/>
	<path class="st0" d="M34.4,0L34.4,0l-5.7,4l-3.1-4l-3.8,0c-2,5.6-3.8,10.7-5.6,15.9h4.2l4.1-11.7l-0.6-1.4L28,8.1l5.7-3.9l-1.2,1.3
		l-3.7,10.3l4.2,0c1.8-5.2,3.6-10.2,5.6-15.8L34.4,0z"/>
	<polygon class="st0" points="16.4,0 10.8,15.9 14.9,15.9 20.6,0 	"/>
	<path class="st0" d="M13.8,4L13.8,4l1.5-4c-5.4,0-8.5,0-13.8,0L0,4h4.7c0,0-2.7,7.6-4.2,11.9h4.3C6.1,12.1,8.3,5.6,8.8,4.3L7.6,4
		H13.8z"/>
</g>
</svg>
